<?xml version="1.0" encoding="UTF-8" standalone="no"?>
<!DOCTYPE svg PUBLIC "-//W3C//DTD SVG 1.1//EN" "http://www.w3.org/Graphics/SVG/1.1/DTD/svg11.dtd">
<svg width="100%" height="100%" viewBox="0 0 44 37" version="1.1" xmlns="http://www.w3.org/2000/svg" xmlns:xlink="http://www.w3.org/1999/xlink" xml:space="preserve" xmlns:serif="http://www.serif.com/" style="fill-rule:evenodd;clip-rule:evenodd;stroke-linejoin:round;stroke-miterlimit:2;">
    <g id="Слой-1" serif:id="Слой 1">
        <g opacity="0.2">
            <g transform="matrix(1,0,0,1,0,16.3448)">
                <rect x="0.681" y="7.493" width="42.226" height="5.449" style="fill:rgb(0,178,232);"/>
            </g>
        </g>
        <g opacity="0.2">
            <g transform="matrix(1,0,0,1,0,25.8818)">
                <rect x="13.621" y="3.405" width="16.346" height="4.086" style="fill:rgb(0,178,232);"/>
            </g>
        </g>
        <g transform="matrix(1,0,0,1,0,-0.0002)">
            <path d="M1.362,24.519L42.226,24.519L42.226,28.605L1.362,28.605L1.362,24.519ZM29.286,32.692L14.302,32.692L14.302,29.967L29.286,29.967L29.286,32.692ZM34.735,35.415L8.854,35.415L8.854,34.054L34.735,34.054L34.735,35.415ZM42.226,23.157L1.362,23.157L1.362,1.363L42.226,1.363L42.226,23.157ZM42.908,0L0.681,0C0.305,0 0,0.305 0,0.681L0,29.287C0,29.663 0.305,29.967 0.681,29.967L12.94,29.967L12.94,32.692L8.173,32.692C7.797,32.692 7.492,32.997 7.492,33.373L7.492,36.097C7.492,36.473 7.797,36.778 8.173,36.778L35.415,36.778C35.791,36.778 36.097,36.473 36.097,36.097L36.097,33.373C36.097,32.997 35.791,32.692 35.415,32.692L30.648,32.692L30.648,29.967L42.908,29.967C43.283,29.967 43.588,29.663 43.588,29.287L43.588,0.681C43.588,0.305 43.283,0 42.908,0" style="fill:rgb(0,129,214);fill-rule:nonzero;"/>
        </g>
        <g transform="matrix(1,0,0,1,3.4056,17.7082)">
            <path d="M0,4.086L1.362,4.086C1.738,4.086 2.043,3.781 2.043,3.405C2.043,3.029 1.738,2.724 1.362,2.724L0.681,2.724L0.681,0.681C0.681,0.305 0.376,0 0,0C-0.376,0 -0.681,0.305 -0.681,0.681L-0.681,3.405C-0.681,3.781 -0.376,4.086 0,4.086" style="fill:rgb(0,129,214);fill-rule:nonzero;"/>
        </g>
        <g transform="matrix(1,0,0,1,6.8108,20.4322)">
            <path d="M0,1.362L1.362,1.362C1.738,1.362 2.043,1.057 2.043,0.681C2.043,0.305 1.738,0 1.362,0L0,0C-0.376,0 -0.681,0.305 -0.681,0.681C-0.681,1.057 -0.376,1.362 0,1.362" style="fill:rgb(0,129,214);fill-rule:nonzero;"/>
        </g>
    </g>
</svg>
