<?xml version="1.0" encoding="UTF-8" standalone="no"?>
<!DOCTYPE svg PUBLIC "-//W3C//DTD SVG 1.1//EN" "http://www.w3.org/Graphics/SVG/1.1/DTD/svg11.dtd">
<svg width="100%" height="100%" viewBox="0 0 48 43" version="1.1" xmlns="http://www.w3.org/2000/svg" xmlns:xlink="http://www.w3.org/1999/xlink" xml:space="preserve" xmlns:serif="http://www.serif.com/" style="fill-rule:evenodd;clip-rule:evenodd;stroke-linejoin:round;stroke-miterlimit:2;">
    <g id="Слой-1" serif:id="Слой 1">
        <g opacity="0.2">
            <g transform="matrix(1,0,0,1,0,31.6394)">
                <rect x="29.326" y="0.772" width="9.261" height="9.261" style="fill:rgb(0,178,232);"/>
            </g>
        </g>
        <g opacity="0.2">
            <g transform="matrix(1,0,0,1,0,31.6394)">
                <rect x="10.032" y="0.773" width="9.261" height="9.261" style="fill:rgb(0,178,232);"/>
            </g>
        </g>
        <g opacity="0.2">
            <g transform="matrix(1,0,0,1,0,13.8904)">
                <rect x="29.326" y="12.348" width="9.261" height="3.858" style="fill:rgb(0,178,232);"/>
            </g>
        </g>
        <g opacity="0.2">
            <g transform="matrix(1,0,0,1,0,1.5434)">
                <rect x="29.326" y="18.521" width="9.261" height="3.859" style="fill:rgb(0,178,232);"/>
            </g>
        </g>
        <g opacity="0.2">
            <g transform="matrix(1,0,0,1,0,-10.8046)">
                <rect x="29.326" y="24.695" width="9.261" height="3.859" style="fill:rgb(0,178,232);"/>
            </g>
        </g>
        <g opacity="0.2">
            <g transform="matrix(1,0,0,1,0,-0.7716)">
                <rect x="9.261" y="20.065" width="10.804" height="3.087" style="fill:rgb(0,178,232);"/>
            </g>
        </g>
        <g opacity="0.2">
            <g transform="matrix(1,0,0,1,0,14.6634)">
                <rect x="9.261" y="12.347" width="10.804" height="3.087" style="fill:rgb(0,178,232);"/>
            </g>
        </g>
        <g opacity="0.2">
            <g transform="matrix(1,0,0,1,0,-11.5766)">
                <rect x="9.261" y="25.468" width="10.804" height="3.087" style="fill:rgb(0,178,232);"/>
            </g>
        </g>
        <g opacity="0.2">
            <g transform="matrix(1,0,0,1,0,-27.0106)">
                <rect x="9.261" y="33.184" width="10.804" height="3.087" style="fill:rgb(0,178,232);"/>
            </g>
        </g>
        <g transform="matrix(1,0,0,1,39.3578,1.5439)">
            <path d="M0,39.357L0,30.868C0,30.442 -0.346,30.096 -0.771,30.096L-10.032,30.096C-10.459,30.096 -10.805,30.442 -10.805,30.868L-10.805,39.357L-11.576,39.357L-11.576,9.993C-7.157,9.69 -3.098,7.979 0.771,4.784L0.771,39.357L0,39.357ZM-4.631,31.64L-1.544,31.64L-1.544,39.357L-4.631,39.357L-4.631,31.64ZM-9.261,31.64L-6.174,31.64L-6.174,39.357L-9.261,39.357L-9.261,31.64ZM-19.293,39.357L-19.293,30.868C-19.293,30.442 -19.639,30.096 -20.065,30.096L-29.326,30.096C-29.751,30.096 -30.097,30.442 -30.097,30.868L-30.097,39.357L-33.184,39.357L-33.184,23.922L-16.206,23.922L-16.206,39.357L-19.293,39.357ZM-23.923,31.64L-20.836,31.64L-20.836,39.357L-23.923,39.357L-23.923,31.64ZM-28.554,31.64L-25.467,31.64L-25.467,39.357L-28.554,39.357L-28.554,31.64ZM-32.412,10.804L-16.978,10.804L-16.978,22.38L-32.412,22.38L-32.412,10.804ZM-31.641,3.086L-17.75,3.086L-17.75,9.26L-31.641,9.26L-31.641,3.086ZM4.63,39.357L2.314,39.357L2.314,3.086C2.314,2.78 2.134,2.503 1.854,2.379C1.572,2.256 1.246,2.311 1.021,2.519C-3.168,6.379 -7.549,8.331 -12.373,8.489C-12.789,8.503 -13.119,8.844 -13.119,9.26L-13.119,39.357L-14.663,39.357L-14.663,23.151C-14.663,22.725 -15.009,22.379 -15.435,22.379L-15.435,10.032C-15.435,9.606 -15.78,9.26 -16.206,9.26L-16.206,2.315C-16.206,1.889 -16.552,1.543 -16.978,1.543L-23.923,1.543L-23.923,-0.772C-23.923,-1.198 -24.269,-1.544 -24.695,-1.544C-25.121,-1.544 -25.467,-1.198 -25.467,-0.772L-25.467,1.543L-32.412,1.543C-32.838,1.543 -33.184,1.889 -33.184,2.315L-33.184,9.26C-33.61,9.26 -33.956,9.606 -33.956,10.032L-33.956,22.379C-34.382,22.379 -34.728,22.725 -34.728,23.151L-34.728,39.357L-38.586,39.357C-39.012,39.357 -39.358,39.703 -39.358,40.128C-39.358,40.555 -39.012,40.901 -38.586,40.901L4.63,40.901C5.056,40.901 5.401,40.555 5.401,40.128C5.401,39.703 5.056,39.357 4.63,39.357" style="fill:rgb(0,129,214);fill-rule:nonzero;"/>
        </g>
        <g transform="matrix(1,0,0,1,47.0746,42.4449)">
            <path d="M0,-1.544L-0.771,-1.544C-1.197,-1.544 -1.543,-1.198 -1.543,-0.773C-1.543,-0.346 -1.197,0 -0.771,0L0,0C0.426,0 0.771,-0.346 0.771,-0.773C0.771,-1.198 0.426,-1.544 0,-1.544" style="fill:rgb(0,129,214);fill-rule:nonzero;"/>
        </g>
        <g transform="matrix(1,0,0,1,0,13.8904)">
            <path d="M37.814,15.435L30.097,15.435L30.097,13.12L37.814,13.12L37.814,15.435ZM38.586,11.576L29.326,11.576C28.899,11.576 28.553,11.922 28.553,12.348L28.553,16.207C28.553,16.633 28.899,16.978 29.326,16.978L38.586,16.978C39.012,16.978 39.358,16.633 39.358,16.207L39.358,12.348C39.358,11.922 39.012,11.576 38.586,11.576" style="fill:rgb(0,129,214);fill-rule:nonzero;"/>
        </g>
        <g transform="matrix(1,0,0,1,0,1.5434)">
            <path d="M37.814,21.608L30.097,21.608L30.097,19.293L37.814,19.293L37.814,21.608ZM38.586,17.75L29.326,17.75C28.899,17.75 28.553,18.095 28.553,18.521L28.553,22.38C28.553,22.806 28.899,23.151 29.326,23.151L38.586,23.151C39.012,23.151 39.358,22.806 39.358,22.38L39.358,18.521C39.358,18.095 39.012,17.75 38.586,17.75" style="fill:rgb(0,129,214);fill-rule:nonzero;"/>
        </g>
        <g transform="matrix(1,0,0,1,0,-10.8036)">
            <path d="M37.814,27.781L30.097,27.781L30.097,25.466L37.814,25.466L37.814,27.781ZM38.586,23.923L29.326,23.923C28.899,23.923 28.553,24.268 28.553,24.694L28.553,28.553C28.553,28.979 28.899,29.325 29.326,29.325L38.586,29.325C39.012,29.325 39.358,28.979 39.358,28.553L39.358,24.694C39.358,24.268 39.012,23.923 38.586,23.923" style="fill:rgb(0,129,214);fill-rule:nonzero;"/>
        </g>
        <g transform="matrix(1,0,0,1,0,-0.7716)">
            <path d="M19.293,22.38L10.032,22.38L10.032,20.837L19.293,20.837L19.293,22.38ZM20.065,19.293L9.261,19.293C8.835,19.293 8.489,19.638 8.489,20.065L8.489,23.151C8.489,23.578 8.835,23.923 9.261,23.923L20.065,23.923C20.491,23.923 20.836,23.578 20.836,23.151L20.836,20.065C20.836,19.638 20.491,19.293 20.065,19.293" style="fill:rgb(0,129,214);fill-rule:nonzero;"/>
        </g>
        <g transform="matrix(1,0,0,1,0,14.6624)">
            <path d="M19.293,14.663L10.032,14.663L10.032,13.119L19.293,13.119L19.293,14.663ZM20.065,11.576L9.261,11.576C8.835,11.576 8.489,11.922 8.489,12.348L8.489,15.435C8.489,15.861 8.835,16.206 9.261,16.206L20.065,16.206C20.491,16.206 20.836,15.861 20.836,15.435L20.836,12.348C20.836,11.922 20.491,11.576 20.065,11.576" style="fill:rgb(0,129,214);fill-rule:nonzero;"/>
        </g>
        <g transform="matrix(1,0,0,1,0,-11.5756)">
            <path d="M19.293,27.782L10.032,27.782L10.032,26.239L19.293,26.239L19.293,27.782ZM20.065,24.695L9.261,24.695C8.835,24.695 8.489,25.04 8.489,25.466L8.489,28.553C8.489,28.979 8.835,29.325 9.261,29.325L20.065,29.325C20.491,29.325 20.836,28.979 20.836,28.553L20.836,25.466C20.836,25.04 20.491,24.695 20.065,24.695" style="fill:rgb(0,129,214);fill-rule:nonzero;"/>
        </g>
        <g transform="matrix(1,0,0,1,0,-27.0106)">
            <path d="M19.293,35.499L10.032,35.499L10.032,33.956L19.293,33.956L19.293,35.499ZM20.065,32.412L9.261,32.412C8.835,32.412 8.489,32.758 8.489,33.184L8.489,36.271C8.489,36.697 8.835,37.043 9.261,37.043L20.065,37.043C20.491,37.043 20.836,36.697 20.836,36.271L20.836,33.184C20.836,32.758 20.491,32.412 20.065,32.412" style="fill:rgb(0,129,214);fill-rule:nonzero;"/>
        </g>
    </g>
</svg>
