<?xml version="1.0" encoding="UTF-8" standalone="no"?>
<!DOCTYPE svg PUBLIC "-//W3C//DTD SVG 1.1//EN" "http://www.w3.org/Graphics/SVG/1.1/DTD/svg11.dtd">
<svg width="100%" height="100%" viewBox="0 0 47 43" version="1.1" xmlns="http://www.w3.org/2000/svg" xmlns:xlink="http://www.w3.org/1999/xlink" xml:space="preserve" xmlns:serif="http://www.serif.com/" style="fill-rule:evenodd;clip-rule:evenodd;stroke-linejoin:round;stroke-miterlimit:2;">
    <g id="Слой-1" serif:id="Слой 1">
        <g opacity="0.2">
            <g transform="matrix(1,0,0,1,0,32.0204)">
                <rect x="18.616" y="0.744" width="5.957" height="8.936" style="fill:rgb(0,178,232);"/>
            </g>
        </g>
        <g opacity="0.2">
            <g transform="matrix(1,0,0,1,0,32.0204)">
                <rect x="32.019" y="0.744" width="5.957" height="8.936" style="fill:rgb(0,178,232);"/>
            </g>
        </g>
        <g opacity="0.2">
            <g transform="matrix(1,0,0,1,34.9979,24.5724)">
                <path d="M0,-5.212L-3.723,0L3.724,0L0,-5.212Z" style="fill:rgb(0,178,232);fill-rule:nonzero;"/>
            </g>
        </g>
        <g opacity="0.2">
            <g transform="matrix(1,0,0,1,0,32.0204)">
                <rect x="5.212" y="0.744" width="7.446" height="8.936" style="fill:rgb(0,178,232);"/>
            </g>
        </g>
        <g opacity="0.2">
            <g transform="matrix(1,0,0,1,0,14.8934)">
                <rect x="5.212" y="11.914" width="7.446" height="3.723" style="fill:rgb(0,178,232);"/>
            </g>
        </g>
        <g opacity="0.2">
            <g transform="matrix(1,0,0,1,0,3.0994)">
                <rect x="5.333" y="17.871" width="7.206" height="3.603" style="fill:rgb(0,178,232);"/>
            </g>
        </g>
        <g opacity="0.2">
            <g transform="matrix(1,0,0,1,0,-8.9366)">
                <rect x="5.212" y="23.829" width="7.447" height="3.723" style="fill:rgb(0,178,232);"/>
            </g>
        </g>
        <g transform="matrix(1,0,0,1,38.7215,13.4026)">
            <path d="M0,27.553L0,19.362C0,18.95 -0.334,18.616 -0.745,18.616L-6.702,18.616C-7.113,18.616 -7.446,18.95 -7.446,19.362L-7.446,27.553L-13.403,27.553L-13.403,19.362C-13.403,18.95 -13.737,18.616 -14.148,18.616L-20.105,18.616C-20.517,18.616 -20.85,18.95 -20.85,19.362L-20.85,27.553L-23.084,27.553L-23.084,16.383L2.233,16.383L2.233,27.553L0,27.553ZM-5.957,20.106L-1.489,20.106L-1.489,27.553L-5.957,27.553L-5.957,20.106ZM-19.361,20.106L-14.893,20.106L-14.893,27.553L-19.361,27.553L-19.361,20.106ZM-29.041,20.106L-26.807,20.106L-26.807,27.553L-29.041,27.553L-29.041,20.106ZM-32.764,20.106L-30.53,20.106L-30.53,27.553L-32.764,27.553L-32.764,20.106ZM-34.999,0.001L-24.573,0.001L-24.573,27.553L-25.318,27.553L-25.318,19.362C-25.318,18.95 -25.651,18.616 -26.062,18.616L-33.509,18.616C-33.92,18.616 -34.254,18.95 -34.254,19.362L-34.254,27.553L-34.999,27.553L-34.999,0.001ZM-6.702,11.915L-0.745,11.915L-0.745,14.894L-6.702,14.894L-6.702,11.915ZM-3.724,7.24L-1.447,10.426L-6,10.426L-3.724,7.24ZM3.723,27.553L3.723,15.638C3.723,15.227 3.39,14.894 2.979,14.894L0.744,14.894L0.744,11.17L0.743,11.17C0.743,11.015 0.695,10.865 0.605,10.738L-3.117,5.525C-3.257,5.33 -3.483,5.213 -3.724,5.213C-3.964,5.213 -4.189,5.33 -4.329,5.525L-8.053,10.738C-8.143,10.865 -8.19,11.015 -8.189,11.17L-8.191,11.17L-8.191,14.894L-23.084,14.894L-23.084,-0.744C-23.084,-1.155 -23.417,-1.489 -23.829,-1.489L-35.743,-1.489C-36.154,-1.489 -36.488,-1.155 -36.488,-0.744L-36.488,27.553L-37.977,27.553C-38.388,27.553 -38.722,27.886 -38.722,28.297C-38.722,28.708 -38.388,29.042 -37.977,29.042L3.723,29.042C4.134,29.042 4.468,28.708 4.468,28.297C4.468,27.886 4.134,27.553 3.723,27.553" style="fill:rgb(0,129,214);fill-rule:nonzero;"/>
        </g>
        <g transform="matrix(1,0,0,1,45.4227,42.4446)">
            <path d="M0,-1.489L-0.744,-1.489C-1.155,-1.489 -1.489,-1.156 -1.489,-0.745C-1.489,-0.334 -1.155,0 -0.744,0L0,0C0.411,0 0.745,-0.334 0.745,-0.745C0.745,-1.156 0.411,-1.489 0,-1.489" style="fill:rgb(0,129,214);fill-rule:nonzero;"/>
        </g>
        <g transform="matrix(1,0,0,1,0,14.8934)">
            <path d="M5.957,12.658L11.914,12.658L11.914,14.892L5.957,14.892L5.957,12.658ZM5.212,16.382L12.659,16.382C13.07,16.382 13.404,16.048 13.404,15.636L13.404,11.914C13.404,11.503 13.07,11.169 12.659,11.169L5.212,11.169C4.802,11.169 4.468,11.503 4.468,11.914L4.468,15.636C4.468,16.048 4.802,16.382 5.212,16.382" style="fill:rgb(0,129,214);fill-rule:nonzero;"/>
        </g>
        <g transform="matrix(1,0,0,1,0,2.9784)">
            <path d="M5.957,18.616L11.914,18.616L11.914,20.85L5.957,20.85L5.957,18.616ZM5.212,22.339L12.659,22.339C13.07,22.339 13.404,22.005 13.404,21.594L13.404,17.871C13.404,17.461 13.07,17.127 12.659,17.127L5.212,17.127C4.802,17.127 4.468,17.461 4.468,17.871L4.468,21.594C4.468,22.005 4.802,22.339 5.212,22.339" style="fill:rgb(0,129,214);fill-rule:nonzero;"/>
        </g>
        <g transform="matrix(1,0,0,1,0,-8.4316)">
            <path d="M6.054,24.358L11.819,24.358L11.819,26.52L6.054,26.52L6.054,24.358ZM5.333,27.96L12.538,27.96C12.936,27.96 13.259,27.638 13.259,27.24L13.259,23.637C13.259,23.239 12.936,22.916 12.538,22.916L5.333,22.916C4.935,22.916 4.612,23.239 4.612,23.637L4.612,27.24C4.612,27.638 4.935,27.96 5.333,27.96" style="fill:rgb(0,129,214);fill-rule:nonzero;"/>
        </g>
        <g transform="matrix(1,0,0,1,29.368,10.0962)">
            <path d="M0,2.146C0.209,1.935 0.493,1.817 0.79,1.818L1.41,1.818C1.821,1.818 2.155,1.484 2.155,1.073C2.155,-0.572 3.488,-1.905 5.134,-1.905C6.778,-1.905 8.112,-0.572 8.112,1.073C8.112,1.484 8.445,1.818 8.856,1.818L11.96,1.818C12.576,1.818 13.076,2.318 13.076,2.935C13.076,3.552 12.576,4.052 11.96,4.052L0.79,4.052C0.339,4.052 -0.068,3.78 -0.241,3.362C-0.415,2.946 -0.319,2.465 0,2.146M0.79,5.541L11.96,5.541C13.398,5.541 14.565,4.375 14.565,2.935C14.565,1.496 13.398,0.329 11.96,0.329L9.539,0.329C9.176,-1.821 7.313,-3.395 5.133,-3.395C2.953,-3.394 1.091,-1.82 0.728,0.33C-0.699,0.364 -1.833,1.539 -1.815,2.966C-1.799,4.393 -0.638,5.541 0.79,5.541" style="fill:rgb(0,129,214);fill-rule:nonzero;"/>
        </g>
        <g transform="matrix(1,0,0,1,10.0072,3.396)">
            <path d="M0,2.144C0.209,1.934 0.493,1.816 0.79,1.816L1.411,1.816C1.822,1.816 2.155,1.483 2.155,1.072C2.155,-0.573 3.489,-1.907 5.134,-1.907C6.779,-1.907 8.112,-0.573 8.112,1.072C8.112,1.483 8.446,1.816 8.857,1.816L11.959,1.816C12.576,1.816 13.077,2.317 13.077,2.934C13.077,3.55 12.576,4.05 11.959,4.05L0.79,4.05C0.339,4.05 -0.068,3.778 -0.242,3.361C-0.415,2.944 -0.319,2.464 0,2.144M0.79,5.54L11.959,5.54C13.399,5.54 14.566,4.373 14.566,2.934C14.566,1.494 13.399,0.327 11.959,0.327L9.54,0.327C9.176,-1.822 7.314,-3.396 5.133,-3.396C2.953,-3.396 1.091,-1.822 0.728,0.328C-0.699,0.362 -1.833,1.537 -1.815,2.964C-1.799,4.392 -0.637,5.54 0.79,5.54" style="fill:rgb(0,129,214);fill-rule:nonzero;"/>
        </g>
    </g>
</svg>
