<?xml version="1.0" encoding="UTF-8" standalone="no"?>
<!DOCTYPE svg PUBLIC "-//W3C//DTD SVG 1.1//EN" "http://www.w3.org/Graphics/SVG/1.1/DTD/svg11.dtd">
<svg width="100%" height="100%" viewBox="0 0 18 18" version="1.1" xmlns="http://www.w3.org/2000/svg" xmlns:xlink="http://www.w3.org/1999/xlink" xml:space="preserve" xmlns:serif="http://www.serif.com/" style="fill-rule:evenodd;clip-rule:evenodd;stroke-linejoin:round;stroke-miterlimit:2;">
    <g id="Слой-1" serif:id="Слой 1">
        <g opacity="0.2">
            <g transform="matrix(0.406226,0.913773,0.913773,-0.406226,6.82577,7.90041)">
                <path d="M1.989,-0.421L9.411,-0.421L-2.793,12.013L-3.522,-5.395L1.989,-0.421Z" style="fill:rgb(0,178,232);fill-rule:nonzero;"/>
            </g>
        </g>
        <g transform="matrix(1,0,0,1,7.397,7.5817)">
            <path d="M0,1.973C0.083,2.009 0.148,2.075 0.186,2.158L2.846,8.145L8.622,-6.464L-5.986,-0.688L0,1.973ZM2.866,9.454C2.721,9.454 2.59,9.369 2.532,9.237L-0.426,2.584L-7.079,-0.374C-7.213,-0.434 -7.299,-0.568 -7.296,-0.715C-7.293,-0.862 -7.203,-0.993 -7.066,-1.048L9.137,-7.455C9.18,-7.472 9.226,-7.481 9.273,-7.481C9.371,-7.481 9.462,-7.443 9.532,-7.374C9.635,-7.27 9.667,-7.115 9.612,-6.979L3.206,9.223C3.152,9.361 3.021,9.452 2.874,9.454L2.866,9.454Z" style="fill:rgb(0,129,214);fill-rule:nonzero;"/>
        </g>
        <g transform="matrix(1,0,0,1,7.4376,7.6739)">
            <path d="M0,1.789C0.105,1.835 0.19,1.919 0.237,2.025L2.8,7.793L8.402,-6.377L-5.767,-0.775L0,1.789ZM2.825,9.463C2.641,9.463 2.474,9.353 2.399,9.185L-0.542,2.567L-7.16,-0.374C-7.332,-0.45 -7.441,-0.621 -7.437,-0.809C-7.434,-0.997 -7.318,-1.164 -7.144,-1.233L9.061,-7.64C9.109,-7.661 9.169,-7.674 9.232,-7.674C9.356,-7.674 9.474,-7.626 9.562,-7.538C9.695,-7.404 9.735,-7.207 9.665,-7.033L3.259,9.167C3.19,9.343 3.023,9.459 2.835,9.463L2.825,9.463Z" style="fill:rgb(0,129,214);fill-rule:nonzero;"/>
        </g>
        <g transform="matrix(1,0,0,1,10.2486,1.1324)">
            <path d="M0,14.851L-2.757,8.648C-2.784,8.587 -2.832,8.539 -2.892,8.513L-9.095,5.756L5.947,-0.191L0,14.851ZM6.323,-0.912L-9.881,5.494C-9.98,5.534 -10.046,5.629 -10.048,5.736C-10.05,5.844 -9.988,5.941 -9.89,5.985L-3.202,8.957L-0.229,15.646C-0.187,15.742 -0.091,15.804 0.014,15.804L0.02,15.804C0.127,15.802 0.223,15.736 0.262,15.635L6.668,-0.567C6.708,-0.666 6.685,-0.779 6.61,-0.854C6.534,-0.93 6.421,-0.953 6.322,-0.913L6.323,-0.912Z" style="fill:rgb(0,129,214);fill-rule:nonzero;"/>
        </g>
    </g>
</svg>
