<?xml version="1.0" encoding="UTF-8" standalone="no"?>
<!DOCTYPE svg PUBLIC "-//W3C//DTD SVG 1.1//EN" "http://www.w3.org/Graphics/SVG/1.1/DTD/svg11.dtd">
<svg width="100%" height="100%" viewBox="0 0 41 41" version="1.1" xmlns="http://www.w3.org/2000/svg" xmlns:xlink="http://www.w3.org/1999/xlink" xml:space="preserve" xmlns:serif="http://www.serif.com/" style="fill-rule:evenodd;clip-rule:evenodd;stroke-linejoin:round;stroke-miterlimit:2;">
    <g id="Слой-1" serif:id="Слой 1">
        <g opacity="0.2">
            <g transform="matrix(-1,0,0,1,31.2028,17.5162)">
                <path d="M0,-16.844C4.648,-16.844 8.422,-13.071 8.422,-8.422C8.422,-3.774 4.648,0 0,0C-4.648,0 -8.422,-3.774 -8.422,-8.422C-8.422,-13.071 -4.648,-16.844 0,-16.844" style="fill:rgb(0,178,232);fill-rule:nonzero;"/>
            </g>
        </g>
        <g opacity="0.2">
            <g transform="matrix(1,0,0,1,5.8307,22.026)">
                <path d="M0,16.845L0,-1.943L-5.183,-1.943L-5.183,16.845L0,16.845Z" style="fill:rgb(0,178,232);fill-rule:nonzero;"/>
            </g>
        </g>
        <g transform="matrix(1,0,0,1,31.0973,12.2445)">
            <path d="M0,-6.357C0.866,-6.357 1.651,-5.855 1.651,-5.296C1.651,-4.94 1.943,-4.649 2.3,-4.649C2.656,-4.649 2.947,-4.94 2.947,-5.296C2.947,-6.414 1.96,-7.354 0.647,-7.588L0.647,-8.357C0.647,-8.713 0.356,-9.005 0,-9.005C-0.356,-9.005 -0.647,-8.713 -0.647,-8.357L-0.647,-7.58C-1.83,-7.41 -2.729,-6.43 -2.802,-5.239C-2.802,-3.733 -1.409,-3.109 -0.283,-2.616C0.826,-2.122 1.507,-1.773 1.507,-1.118C1.507,-0.51 0.818,0 0,0C-0.866,0 -1.652,-0.502 -1.652,-1.061C-1.652,-1.417 -1.943,-1.709 -2.3,-1.709C-2.656,-1.709 -2.947,-1.417 -2.947,-1.061C-2.947,0.057 -1.96,0.996 -0.647,1.231L-0.647,2C-0.647,2.357 -0.356,2.648 0,2.648C0.356,2.648 0.647,2.357 0.647,2L0.647,1.223C1.83,1.053 2.729,0.073 2.802,-1.118C2.802,-2.664 1.385,-3.296 0.243,-3.798C-0.851,-4.284 -1.507,-4.624 -1.507,-5.239C-1.507,-5.838 -0.818,-6.357 0,-6.357" style="fill:rgb(0,129,214);fill-rule:nonzero;"/>
        </g>
        <g transform="matrix(1,0,0,1,31.0973,1.2945)">
            <path d="M0,15.55C-4.292,15.55 -7.774,12.068 -7.774,7.776C-7.774,3.484 -4.292,0.001 0,0.001C4.292,0.001 7.774,3.484 7.774,7.776C7.766,12.068 4.292,15.542 0,15.55M0,-1.295C-5.013,-1.295 -9.07,2.763 -9.07,7.776C-9.07,12.788 -5.013,16.845 0,16.845C5.013,16.845 9.07,12.788 9.07,7.776C9.062,2.771 5.005,-1.286 0,-1.295" style="fill:rgb(0,129,214);fill-rule:nonzero;"/>
        </g>
        <g transform="matrix(1,0,0,1,26.4733,3.1499)">
            <path d="M0,2.033C0.17,2.033 0.34,1.96 0.462,1.839C0.664,1.628 0.891,1.434 1.126,1.255C1.409,1.037 1.474,0.632 1.255,0.348C1.036,0.065 0.632,0 0.348,0.219C0.064,0.438 -0.211,0.672 -0.462,0.931C-0.713,1.191 -0.705,1.596 -0.453,1.846C-0.332,1.968 -0.17,2.033 0,2.033" style="fill:rgb(0,129,214);fill-rule:nonzero;"/>
        </g>
        <g transform="matrix(1,0,0,1,28.7653,6.4058)">
            <path d="M0,8.009C-2.948,6.721 -4.301,3.288 -3.013,0.34C-2.924,0.137 -2.826,-0.057 -2.713,-0.251C-2.519,-0.551 -2.608,-0.956 -2.916,-1.142C-3.224,-1.328 -3.62,-1.247 -3.807,-0.94C-3.814,-0.924 -3.822,-0.908 -3.831,-0.891C-5.799,2.51 -4.633,6.875 -1.231,8.843C-0.997,8.981 -0.762,9.102 -0.511,9.208C-0.179,9.337 0.202,9.175 0.332,8.843C0.453,8.519 0.308,8.155 0,8.009" style="fill:rgb(0,129,214);fill-rule:nonzero;"/>
        </g>
        <g transform="matrix(1,0,0,1,29.4616,12.7058)">
            <path d="M0,24.481C-0.138,25.445 -0.956,26.166 -1.928,26.166L-14.779,26.166C-16.958,26.174 -19.047,25.307 -20.578,23.76C-20.699,23.639 -20.861,23.575 -21.04,23.575L-22.983,23.575L-22.983,9.322L-19.687,9.322C-16.853,9.322 -14.561,7.029 -14.561,4.195L-14.561,-1.692L-13.913,-1.692C-11.686,-1.692 -10.674,1.288 -10.674,2.195L-10.674,7.377C-10.674,7.734 -10.382,8.026 -10.026,8.026L-0.024,8.026C1.053,8.026 1.919,8.892 1.919,9.969C1.919,10.058 1.911,10.139 1.903,10.228L1.676,11.921C1.66,11.921 1.651,11.913 1.636,11.913L-3.547,11.913C-3.903,11.913 -4.195,12.205 -4.195,12.561C-4.195,12.917 -3.903,13.209 -3.547,13.209L1.498,13.209L0.979,17.095L-4.195,17.095C-4.551,17.095 -4.843,17.387 -4.843,17.744C-4.843,18.1 -4.551,18.391 -4.195,18.391L0.81,18.391L0.372,21.639C0.356,21.639 0.349,21.63 0.34,21.63L-4.843,21.63C-5.199,21.63 -5.491,21.922 -5.491,22.279C-5.491,22.634 -5.199,22.926 -4.843,22.926L0.202,22.926L0,24.481ZM-24.279,25.518L-28.166,25.518L-28.166,8.026L-24.279,8.026L-24.279,25.518ZM-0.024,6.73L-9.378,6.73L-9.378,2.195C-9.378,0.438 -10.981,-2.988 -13.913,-2.988L-14.561,-2.988C-15.273,-2.988 -15.856,-2.405 -15.856,-1.692L-15.856,4.195C-15.856,6.309 -17.573,8.026 -19.687,8.026L-22.983,8.026L-22.983,7.377C-22.983,7.022 -23.275,6.73 -23.631,6.73L-28.814,6.73C-29.17,6.73 -29.461,7.022 -29.461,7.377L-29.461,26.166C-29.461,26.522 -29.17,26.814 -28.814,26.814L-23.631,26.814C-23.275,26.814 -22.983,26.522 -22.983,26.166L-22.983,24.87L-21.298,24.87C-19.541,26.539 -17.201,27.469 -14.779,27.461L-1.928,27.461C-0.308,27.461 1.068,26.255 1.279,24.652L3.183,10.399C3.417,8.625 2.17,6.997 0.396,6.762C0.259,6.738 0.113,6.73 -0.024,6.73" style="fill:rgb(0,129,214);fill-rule:nonzero;"/>
        </g>
    </g>
</svg>
