<?xml version="1.0" encoding="UTF-8" standalone="no"?>
<!DOCTYPE svg PUBLIC "-//W3C//DTD SVG 1.1//EN" "http://www.w3.org/Graphics/SVG/1.1/DTD/svg11.dtd">
<svg width="100%" height="100%" viewBox="0 0 48 42" version="1.1" xmlns="http://www.w3.org/2000/svg" xmlns:xlink="http://www.w3.org/1999/xlink" xml:space="preserve" xmlns:serif="http://www.serif.com/" style="fill-rule:evenodd;clip-rule:evenodd;stroke-linejoin:round;stroke-miterlimit:2;">
    <g id="Слой-1" serif:id="Слой 1">
        <g opacity="0.2">
            <g transform="matrix(1,0,0,1,0,-3.0523)">
                <rect x="18.313" y="19.839" width="10.682" height="4.578" style="fill:rgb(0,178,232);"/>
            </g>
        </g>
        <g opacity="0.2">
            <g transform="matrix(1,0,0,1,0,12.2097)">
                <rect x="18.313" y="12.208" width="10.682" height="4.578" style="fill:rgb(0,178,232);"/>
            </g>
        </g>
        <g opacity="0.2">
            <g transform="matrix(1,0,0,1,0,31.2837)">
                <rect x="18.313" y="0.764" width="10.682" height="8.393" style="fill:rgb(0,178,232);"/>
            </g>
        </g>
        <g opacity="0.2">
            <g transform="matrix(1,0,0,1,0,-18.3123)">
                <rect x="18.313" y="27.469" width="10.682" height="4.578" style="fill:rgb(0,178,232);"/>
            </g>
        </g>
        <g opacity="0.2">
            <g transform="matrix(1,0,0,1,0,-2.2873)">
                <rect x="9.92" y="6.103" width="3.052" height="31.285" style="fill:rgb(0,178,232);"/>
            </g>
        </g>
        <g opacity="0.2">
            <g transform="matrix(1,0,0,1,0,-2.2873)">
                <rect x="34.337" y="6.103" width="3.052" height="31.285" style="fill:rgb(0,178,232);"/>
            </g>
        </g>
        <g transform="matrix(1,0,0,1,0,-0.0003)">
            <path d="M32.048,1.526L39.678,1.526L39.678,39.678L32.048,39.678L32.048,1.526ZM24.417,35.1L28.232,35.1L28.232,39.678L24.417,39.678L24.417,35.1ZM19.076,35.1L22.891,35.1L22.891,39.678L19.076,39.678L19.076,35.1ZM24.417,32.811L28.232,32.811L28.232,33.574L24.417,33.574L24.417,32.811ZM22.891,33.574L19.076,33.574L19.076,32.811L22.891,32.811L22.891,33.574ZM16.787,6.868L30.521,6.868L30.521,39.678L29.758,39.678L29.758,32.047C29.758,31.627 29.417,31.285 28.995,31.285L18.313,31.285C17.892,31.285 17.549,31.627 17.549,32.047L17.549,39.678L16.787,39.678L16.787,6.868ZM7.631,1.526L15.261,1.526L15.261,39.678L7.631,39.678L7.631,1.526ZM43.493,39.678L41.204,39.678L41.204,0.763C41.204,0.342 40.862,0 40.441,0L31.284,0C30.863,0 30.521,0.342 30.521,0.763L30.521,5.341L16.787,5.341L16.787,0.763C16.787,0.342 16.445,0 16.024,0L6.867,0C6.446,0 6.104,0.342 6.104,0.763L6.104,39.678L0.763,39.678C0.342,39.678 0,40.02 0,40.441C0,40.862 0.342,41.204 0.763,41.204L43.493,41.204C43.914,41.204 44.256,40.862 44.256,40.441C44.256,40.02 43.914,39.678 43.493,39.678" style="fill:rgb(0,129,214);fill-rule:nonzero;"/>
        </g>
        <g transform="matrix(1,0,0,1,46.5446,41.203)">
            <path d="M0,-1.525L-0.763,-1.525C-1.184,-1.525 -1.525,-1.183 -1.525,-0.762C-1.525,-0.341 -1.184,0 -0.763,0L0,0C0.422,0 0.764,-0.341 0.764,-0.762C0.764,-1.183 0.422,-1.525 0,-1.525" style="fill:rgb(0,129,214);fill-rule:nonzero;"/>
        </g>
        <g transform="matrix(1,0,0,1,0,-3.0513)">
            <path d="M19.076,20.601L20.602,20.601L20.602,23.653L19.076,23.653L19.076,20.601ZM25.18,23.653L22.128,23.653L22.128,20.601L25.18,20.601L25.18,23.653ZM28.232,23.653L26.706,23.653L26.706,20.601L28.232,20.601L28.232,23.653ZM18.313,25.18L28.995,25.18C29.417,25.18 29.758,24.838 29.758,24.416L29.758,19.838C29.758,19.417 29.417,19.075 28.995,19.075L18.313,19.075C17.892,19.075 17.549,19.417 17.549,19.838L17.549,24.416C17.549,24.838 17.892,25.18 18.313,25.18" style="fill:rgb(0,129,214);fill-rule:nonzero;"/>
        </g>
        <g transform="matrix(1,0,0,1,0,12.2077)">
            <path d="M19.076,12.972L20.602,12.972L20.602,16.024L19.076,16.024L19.076,12.972ZM25.18,16.024L22.128,16.024L22.128,12.972L25.18,12.972L25.18,16.024ZM28.232,16.024L26.706,16.024L26.706,12.972L28.232,12.972L28.232,16.024ZM18.313,17.55L28.995,17.55C29.417,17.55 29.758,17.209 29.758,16.788L29.758,12.21C29.758,11.788 29.417,11.446 28.995,11.446L18.313,11.446C17.892,11.446 17.549,11.788 17.549,12.21L17.549,16.788C17.549,17.209 17.892,17.55 18.313,17.55" style="fill:rgb(0,129,214);fill-rule:nonzero;"/>
        </g>
        <g transform="matrix(1,0,0,1,0,-18.3123)">
            <path d="M19.076,28.232L20.602,28.232L20.602,31.284L19.076,31.284L19.076,28.232ZM25.18,31.284L22.128,31.284L22.128,28.232L25.18,28.232L25.18,31.284ZM28.232,31.284L26.706,31.284L26.706,28.232L28.232,28.232L28.232,31.284ZM18.313,32.81L28.995,32.81C29.417,32.81 29.758,32.468 29.758,32.047L29.758,27.469C29.758,27.047 29.417,26.706 28.995,26.706L18.313,26.706C17.892,26.706 17.549,27.047 17.549,27.469L17.549,32.047C17.549,32.468 17.892,32.81 18.313,32.81" style="fill:rgb(0,129,214);fill-rule:nonzero;"/>
        </g>
        <g transform="matrix(1,0,0,1,0,-2.2893)">
            <path d="M12.209,36.626L10.683,36.626L10.683,33.574L12.209,33.574L12.209,36.626ZM10.682,6.868L12.208,6.868L12.208,9.157L10.682,9.157L10.682,6.868ZM10.682,29.758L12.208,29.758L12.208,32.047L10.682,32.047L10.682,29.758ZM12.209,28.232L10.683,28.232L10.683,25.943L12.209,25.943L12.209,28.232ZM12.209,24.418L10.683,24.418L10.683,22.128L12.209,22.128L12.209,24.418ZM12.209,20.602L10.683,20.602L10.683,18.313L12.209,18.313L12.209,20.602ZM12.209,16.787L10.683,16.787L10.683,14.498L12.209,14.498L12.209,16.787ZM12.209,12.972L10.683,12.972L10.683,10.683L12.209,10.683L12.209,12.972ZM12.971,5.341L9.92,5.341C9.498,5.341 9.156,5.683 9.156,6.105L9.156,37.389C9.156,37.81 9.498,38.152 9.92,38.152L12.971,38.152C13.393,38.152 13.735,37.81 13.735,37.389L13.735,6.105C13.735,5.683 13.393,5.341 12.971,5.341" style="fill:rgb(0,129,214);fill-rule:nonzero;"/>
        </g>
        <g transform="matrix(1,0,0,1,0,-2.2893)">
            <path d="M36.626,36.626L35.1,36.626L35.1,33.574L36.626,33.574L36.626,36.626ZM35.099,6.868L36.625,6.868L36.625,9.157L35.099,9.157L35.099,6.868ZM35.099,29.758L36.625,29.758L36.625,32.047L35.099,32.047L35.099,29.758ZM36.626,28.232L35.1,28.232L35.1,25.943L36.626,25.943L36.626,28.232ZM36.626,24.418L35.1,24.418L35.1,22.128L36.626,22.128L36.626,24.418ZM36.626,20.602L35.1,20.602L35.1,18.313L36.626,18.313L36.626,20.602ZM36.626,16.787L35.1,16.787L35.1,14.498L36.626,14.498L36.626,16.787ZM36.626,12.972L35.1,12.972L35.1,10.683L36.626,10.683L36.626,12.972ZM37.388,5.341L34.337,5.341C33.916,5.341 33.573,5.683 33.573,6.105L33.573,37.389C33.573,37.81 33.916,38.152 34.337,38.152L37.388,38.152C37.81,38.152 38.152,37.81 38.152,37.389L38.152,6.105C38.152,5.683 37.81,5.341 37.388,5.341" style="fill:rgb(0,129,214);fill-rule:nonzero;"/>
        </g>
    </g>
</svg>
